
<svg width="9" height="16" viewBox="0 0 9 16" fill="none" xmlns="http://www.w3.org/2000/svg">
<g filter="url(#filter0_b_28_823)">
<path d="M9 8.00001C8.99979 7.89352 8.97819 7.78815 8.9365 7.69015C8.89481 7.59216 8.83387 7.50353 8.75729 7.42953L2.11899 0.975861C1.96133 0.824304 1.75113 0.739655 1.53243 0.739655C1.31374 0.739655 1.10354 0.824304 0.945878 0.975861C0.869078 1.04971 0.80798 1.1383 0.766244 1.23632C0.724508 1.33435 0.702996 1.4398 0.702996 1.54634C0.702996 1.65288 0.724508 1.75833 0.766244 1.85635C0.80798 1.95438 0.869078 2.04297 0.945878 2.11682L6.9971 8.00001L0.945879 13.8832C0.869079 13.957 0.807981 14.0456 0.766245 14.1437C0.724509 14.2417 0.702997 14.3471 0.702997 14.4537C0.702997 14.5602 0.72451 14.6657 0.766245 14.7637C0.807981 14.8617 0.869079 14.9503 0.945879 15.0242C1.10354 15.1757 1.31374 15.2604 1.53243 15.2604C1.75113 15.2604 1.96133 15.1757 2.11899 15.0242L8.75729 8.57049C8.83387 8.49648 8.89481 8.40786 8.9365 8.30986C8.97819 8.21187 8.99979 8.1065 9 8.00001Z" fill="#3A3A3A"/>
</g>
<defs>
<filter id="filter0_b_28_823" x="-9.66922" y="-9.63269" width="29.0416" height="35.2654" filterUnits="userSpaceOnUse" color-interpolation-filters="sRGB">
<feFlood flood-opacity="0" result="BackgroundImageFix"/>
<feGaussianBlur in="BackgroundImageFix" stdDeviation="5.18617"/>
<feComposite in2="SourceAlpha" operator="in" result="effect1_backgroundBlur_28_823"/>
<feBlend mode="normal" in="SourceGraphic" in2="effect1_backgroundBlur_28_823" result="shape"/>
</filter>
</defs>
</svg>
