<svg xmlns="http://www.w3.org/2000/svg" width="14" height="13" viewBox="0 0 14 13" fill="none">
  <path d="M1.19572 11.753L6.056 6.8927L1.19763 2.03433C1.06487 1.9002 0.991031 1.7185 0.991031 1.52977C0.991032 1.34105 1.06519 1.1603 1.19795 1.02617C1.2641 0.960196 1.34236 0.908033 1.42874 0.87242C1.51511 0.836806 1.6078 0.818759 1.70123 0.81894C1.79466 0.819122 1.88653 0.838062 1.97277 0.874012C2.059 0.909961 2.13766 0.962167 2.20356 1.0284L7.06193 5.88677L11.9235 1.02522C11.9897 0.958983 12.069 0.906009 12.1555 0.870191C12.2421 0.834373 12.334 0.816332 12.4277 0.816393C12.5214 0.816453 12.6147 0.834897 12.7012 0.870828C12.7877 0.906758 12.8661 0.959216 12.9323 1.02554C12.9983 1.09156 13.0508 1.16968 13.0863 1.25601C13.1219 1.34233 13.1401 1.43512 13.1398 1.5285C13.1395 1.62188 13.12 1.7149 13.0838 1.80099C13.0476 1.88708 12.9952 1.96491 12.9288 2.03051L8.06722 6.89206L12.9326 11.7574C12.9987 11.8232 13.0508 11.9018 13.0867 11.9879C13.1225 12.0741 13.1417 12.1661 13.1417 12.2594C13.1417 12.3527 13.1231 12.4448 13.0873 12.531C13.0515 12.6171 12.9991 12.6953 12.9329 12.7611C12.7995 12.8942 12.619 12.969 12.4306 12.9693C12.2421 12.9697 12.0606 12.8959 11.9267 12.7634L7.06129 7.89799L2.20101 12.7583C2.06804 12.8912 1.88864 12.9655 1.70059 12.9658C1.51254 12.9662 1.3308 12.893 1.19731 12.7605C1.06427 12.6268 0.989806 12.4459 0.98944 12.2572C0.989074 12.0686 1.06319 11.8872 1.19572 11.753Z" fill="#3A3A3A"/>
</svg>