<svg width="1208" height="92" viewBox="0 0 1208 92" fill="none" xmlns="http://www.w3.org/2000/svg">
<path d="M0 71.1557C2.81979 58.0533 14.2118 31.8486 37.2213 31.8486C65.9832 31.8486 59.2157 48.268 81.2101 48.268C103.204 48.268 108.28 16.4243 130.275 16.4243C152.269 16.4243 148.885 63.1947 170.88 63.1947C192.874 63.1947 211.485 31.8486 233.479 31.8486C251.075 31.8486 270.136 42.7949 277.468 48.268C296.642 58.385 340.744 78.619 363.754 78.619C386.763 78.619 419.585 65.0191 433.12 58.2192C435.94 49.429 445.979 31.8486 463.574 31.8486C485.569 31.8486 492.336 48.268 510.947 48.268C529.557 48.268 538.017 16.4243 560.011 16.4243C582.006 16.4243 582.006 48.268 604 48.268C625.994 48.268 664.908 16.4243 690.286 16.4243C715.664 16.4243 720.74 31.8486 744.426 31.8486C768.112 31.8486 817.176 1 840.863 1C864.549 1 867.933 89.5653 886.543 90.5604C901.432 91.3565 1107.05 90.8921 1208 90.5604" stroke="#3A3A3A" stroke-width="1.8"/>
</svg>
